<svg version="1.1" id="Layer_1" xmlns="http://www.w3.org/2000/svg" xmlns:xlink="http://www.w3.org/1999/xlink" x="0px" y="0px"
	 width="100%" viewBox="0 0 1024 1024" enable-background="new 0 0 1024 1024" xml:space="preserve">
<path fill="#ffffff" opacity="1.000000" stroke="none" 
	d="
M292.066376,137.793900 
	C305.593109,143.118546 318.759216,148.293488 331.914062,153.496933 
	C333.295288,154.043304 334.471100,154.772675 336.139160,154.019073 
	C359.203735,143.598984 383.897186,138.613434 408.295105,132.735138 
	C439.320801,125.260010 470.859375,123.010696 502.768707,122.325287 
	C562.173950,121.049278 619.689331,130.547806 676.018494,148.662689 
	C678.236938,149.376114 680.736389,149.732819 682.576172,151.014679 
	C689.598633,155.907410 695.636169,153.707047 702.983887,150.658310 
	C740.970459,134.896759 779.488342,120.510017 819.647217,111.088860 
	C847.311340,104.598946 874.326721,116.967941 886.510742,141.543442 
	C888.522461,145.601181 889.658630,149.954071 890.889343,154.268478 
	C897.408569,177.122147 904.944824,199.714401 909.583252,223.061829 
	C914.725769,248.946091 919.751648,274.806549 920.601929,301.383606 
	C921.108215,317.209595 921.032715,333.016968 921.223022,348.831329 
	C921.301208,355.323090 920.681580,361.830597 918.970520,368.105408 
	C918.244446,370.768127 918.499512,372.969635 919.650330,375.283936 
	C930.665100,397.435394 935.792603,421.316711 940.255859,445.395630 
	C944.329956,467.374542 946.168518,489.619537 945.922302,511.886932 
	C945.157349,581.050659 926.812378,645.242249 889.702698,703.827026 
	C861.512390,748.330872 825.211853,784.967224 782.295349,815.408447 
	C751.969543,836.919067 719.895935,855.041870 685.326721,868.676147 
	C651.609619,881.974365 616.834229,891.313049 580.907715,896.468872 
	C553.974060,900.334106 526.953369,901.884583 499.774048,901.339600 
	C477.421875,900.891418 455.379944,897.610168 433.361237,894.179932 
	C397.484802,888.591064 363.086761,877.800903 329.749329,863.658020 
	C261.661621,834.772583 204.597427,791.349121 158.677109,733.284241 
	C136.898376,705.745605 120.518211,675.111938 106.672386,643.069763 
	C93.719887,613.094910 86.389198,581.621521 82.523590,549.207642 
	C79.350311,522.599121 79.948509,496.128754 82.510056,469.537506 
	C85.431137,439.213898 91.711212,409.717957 103.231300,381.516846 
	C105.856125,375.091309 106.525230,369.242523 105.702339,362.472565 
	C103.627037,345.398895 104.816254,328.237335 105.341850,311.089386 
	C105.928917,291.936310 107.868858,272.919891 110.830910,254.047699 
	C113.301369,238.307541 116.998688,222.759796 120.158134,207.127960 
	C123.884232,188.692490 129.766129,170.808746 134.183990,152.557693 
	C141.764206,121.242447 170.624573,107.039871 198.428009,110.496140 
	C220.693481,113.263992 241.703522,120.903580 262.884674,127.793983 
	C272.538025,130.934311 282.099426,134.357483 292.066376,137.793900 
z"/>
<path fill="#000000" opacity="0.000000" stroke="none" 
	d="
M312.100159,324.855713 
	C360.492126,324.433502 397.499451,361.107971 405.824127,401.271393 
	C412.092804,431.515228 404.118958,458.457672 384.565887,482.255157 
	C368.798187,501.445587 347.988312,512.023621 324.076447,514.921936 
	C290.159149,519.033142 261.761108,507.370178 239.511871,480.821472 
	C225.944412,464.632324 220.024048,445.987183 218.621704,425.385590 
	C215.966934,386.384552 233.684250,358.206421 265.550385,337.923706 
	C279.448151,329.077850 295.308258,325.827820 312.100159,324.855713 
M273.456787,400.887115 
	C282.618378,424.626648 304.215515,431.385651 324.747894,416.566254 
	C332.025726,411.313416 337.394775,404.259979 338.641815,394.911591 
	C340.987793,377.324463 329.777924,366.844208 316.398071,361.857513 
	C303.908112,357.202515 291.743042,358.614258 281.765106,367.477356 
	C272.065979,376.092804 270.560516,387.761200 273.456787,400.887115 
z"/>
<path fill="#000000" opacity="0.000000" stroke="none" 
	d="
M763.904419,342.016968 
	C786.905029,358.644073 802.343018,379.868622 806.074768,408.149170 
	C810.668518,442.962280 798.924377,471.946503 771.996643,494.110077 
	C729.832214,528.814514 670.482605,521.028137 636.106628,477.103455 
	C625.150208,463.103638 619.919556,447.248505 618.541626,429.684692 
	C615.493835,390.835815 631.079041,360.995911 662.580566,339.340240 
	C679.104065,327.981110 697.941284,323.898499 718.124390,325.410889 
	C734.930725,326.670288 749.705505,332.858307 763.904419,342.016968 
M674.433289,381.021667 
	C673.315247,385.189728 671.911011,389.380432 672.506836,393.735352 
	C676.009827,419.339478 701.313965,434.239502 725.154236,417.483521 
	C735.236206,410.397522 741.863281,400.227539 740.047974,387.317993 
	C738.001648,372.766022 725.070374,361.856750 710.087891,360.355286 
	C693.547607,358.697693 680.944824,365.790588 674.433289,381.021667 
z"/>
<path fill="#000000" opacity="0.000000" stroke="none" 
	d="
M453.668365,492.518677 
	C455.922821,495.401703 456.140991,498.682526 457.266876,501.614746 
	C461.745819,513.279419 474.995819,515.588135 483.421478,506.316223 
	C491.509766,497.415588 494.899506,486.666870 496.521606,475.087189 
	C496.947418,472.047424 494.845917,471.052551 492.976105,469.698608 
	C484.944153,463.882690 477.908447,457.061584 472.810699,448.505737 
	C467.778076,440.059235 468.737915,429.344025 474.512543,422.834473 
	C479.269104,417.472595 485.754486,417.242310 491.983032,417.074341 
	C506.797516,416.674866 521.627930,416.638947 536.448914,416.776245 
	C549.700500,416.898987 563.465088,431.891663 553.772156,448.058594 
	C548.991882,456.031616 543.296265,463.187317 535.110229,467.780945 
	C530.583740,470.320953 529.007629,472.934814 530.120483,478.442719 
	C532.592163,490.675995 537.516418,501.192505 547.627197,508.789246 
	C557.276611,516.039307 565.936829,513.011841 569.263672,501.428528 
	C569.355591,501.108704 569.454224,500.790833 569.546753,500.471161 
	C572.870178,488.991547 579.718384,483.936768 588.752930,486.295013 
	C600.194214,489.281555 606.827576,499.134888 603.820129,510.035522 
	C596.193359,537.678467 578.456665,547.848755 551.821472,543.802490 
	C536.714539,541.507629 524.536865,533.714111 515.175415,521.593689 
	C514.892883,521.227844 514.403931,521.021423 514.075867,520.786865 
	C512.588074,520.883545 512.072083,522.026733 511.377533,522.918945 
	C495.326752,543.536133 475.726440,549.147583 451.254639,539.898499 
	C437.674957,534.766052 427.180634,526.252319 423.252045,511.631531 
	C420.610504,501.800812 423.928070,494.218933 432.374695,488.901062 
	C440.628296,483.704712 446.981323,484.705566 453.668365,492.518677 
z"/>
<path fill="#000000" opacity="0.000000" stroke="none" 
	d="
M206.028015,499.712799 
	C211.502350,500.798126 216.594193,501.647034 221.574326,502.929626 
	C230.435150,505.211670 233.487411,510.621368 232.328949,521.370117 
	C231.503769,529.026306 225.367355,534.946838 217.757660,535.289612 
	C210.860596,535.600342 204.384323,532.944397 197.605423,532.296875 
	C189.013260,531.476196 180.395859,530.700073 171.884018,529.320618 
	C163.599228,527.977905 157.926193,520.219604 158.830444,512.479248 
	C159.930008,503.066742 167.204224,495.458191 175.516891,495.720306 
	C185.647949,496.039734 195.585342,498.214630 206.028015,499.712799 
z"/>
<path fill="#000000" opacity="0.000000" stroke="none" 
	d="
M798.611511,527.179626 
	C797.135620,524.508667 796.171509,522.036804 795.695435,519.400208 
	C794.137878,510.773407 797.587097,503.969116 806.071350,502.288788 
	C820.192627,499.492126 834.478943,497.134125 848.808411,495.908539 
	C860.073547,494.945068 869.655029,508.808472 866.362427,519.531250 
	C864.435059,525.808044 859.853638,528.763916 853.796814,529.177979 
	C841.832642,529.995911 830.118958,532.135498 818.458313,534.771240 
	C810.379883,536.597290 803.679565,534.448059 798.611511,527.179626 
z"/>
<path fill="#000000" opacity="0.000000" stroke="none" 
	d="
M845.048279,601.367065 
	C840.426880,602.893066 836.354980,601.834534 832.521851,600.260376 
	C824.535828,596.980957 816.584717,593.582947 808.802979,589.850525 
	C803.048645,587.090515 797.671814,583.510864 795.824951,576.847961 
	C793.850281,569.723877 796.353516,563.888428 801.572815,558.885681 
	C806.617859,554.050110 812.225037,552.163635 818.831543,555.080444 
	C828.552612,559.372375 838.369873,563.495972 847.831482,568.309814 
	C854.875671,571.893738 858.399963,578.269165 858.261597,586.280945 
	C858.126038,594.127808 854.504211,598.213928 845.048279,601.367065 
z"/>
<path fill="#000000" opacity="0.000000" stroke="none" 
	d="
M180.070450,599.292419 
	C168.462570,594.055725 168.943207,574.218933 180.063431,568.312012 
	C189.768387,563.156921 200.033173,559.229309 210.113922,554.904724 
	C218.271866,551.404968 228.198563,559.493896 230.900314,566.243103 
	C234.142105,574.341492 231.412460,582.486633 223.393906,586.491272 
	C214.022659,591.171509 204.442871,595.435608 194.936920,599.844299 
	C190.052353,602.109802 185.214645,601.488281 180.070450,599.292419 
z"/>
<path fill="#000000" opacity="0.000000" stroke="none" 
	d="
M647.835327,273.873718 
	C649.192688,257.104431 667.104248,243.645798 683.125061,246.904678 
	C696.236877,249.571823 701.817688,264.154480 693.574951,274.689056 
	C688.850159,280.727509 683.273743,286.030090 677.127075,290.617462 
	C668.261292,297.234192 656.478027,294.457855 651.106934,284.720612 
	C649.310913,281.464600 648.489563,277.916443 647.835327,273.873718 
z"/>
<path fill="#000000" opacity="0.000000" stroke="none" 
	d="
M376.763123,281.332581 
	C370.717377,294.899902 356.919861,298.268585 345.980804,289.210388 
	C340.970673,285.061676 336.266144,280.663086 332.586243,275.216705 
	C328.177460,268.691467 327.153687,262.007751 331.532837,255.175644 
	C336.000305,248.205658 342.373810,245.376144 350.731628,246.650665 
	C361.660065,248.317200 375.321472,260.425812 377.709961,270.654602 
	C378.556091,274.278229 377.434509,277.551361 376.763123,281.332581 
z"/>
</svg>